<svg width="235" height="27" viewBox="0 0 235 27" fill="none" xmlns="http://www.w3.org/2000/svg">
<path d="M29.2968 20.6839L26.5871 23.3935V6.64516H32.6V26H0.677419V6.64516H6.69032V23.3935L3.98064 20.6839H16.2129L13.6323 23.3935V6.64516H19.6452V23.3935L17.0129 20.6839H29.2968ZM45.7409 26.4387C43.4183 26.4387 41.3796 26.0172 39.6248 25.1742C37.8872 24.3312 36.528 23.1527 35.5474 21.6387C34.5839 20.1247 34.1022 18.3527 34.1022 16.3226C34.1022 14.2925 34.5839 12.5204 35.5474 11.0065C36.528 9.49247 37.8872 8.31398 39.6248 7.47097C41.3796 6.62796 43.4183 6.20645 45.7409 6.20645C48.0635 6.20645 50.0936 6.62796 51.8312 7.47097C53.5861 8.31398 54.9452 9.49247 55.9087 11.0065C56.8893 12.5204 57.3796 14.2925 57.3796 16.3226C57.3796 18.3527 56.8893 20.1247 55.9087 21.6387C54.9452 23.1527 53.5861 24.3312 51.8312 25.1742C50.0936 26.0172 48.0635 26.4387 45.7409 26.4387ZM45.7409 21.0968C46.8936 21.0968 47.8829 20.9075 48.7087 20.529C49.5517 20.1333 50.1968 19.5828 50.6442 18.8774C51.0915 18.1548 51.3151 17.3032 51.3151 16.3226C51.3151 15.3419 51.0915 14.4989 50.6442 13.7935C50.1968 13.071 49.5517 12.5204 48.7087 12.1419C47.8829 11.7462 46.8936 11.5484 45.7409 11.5484C44.5882 11.5484 43.5904 11.7462 42.7474 12.1419C41.9216 12.5204 41.285 13.071 40.8377 13.7935C40.3904 14.4989 40.1667 15.3419 40.1667 16.3226C40.1667 17.3032 40.3904 18.1548 40.8377 18.8774C41.285 19.5828 41.9216 20.1333 42.7474 20.529C43.5904 20.9075 44.5882 21.0968 45.7409 21.0968ZM79.8758 6.64516V26H73.8629V9.25161L76.5726 11.9613H62.1984L64.9081 9.25161V26H58.8952V6.64516H79.8758ZM82.2077 26V6.64516H88.1689V21.2774L86.6206 20.0129L96.9173 6.64516H103.214L87.6528 26H82.2077ZM91.4722 16.9419L95.8851 13.3806L103.498 26H96.6851L91.4722 16.9419ZM115.003 6.64516C116.689 6.64516 118.135 6.92903 119.339 7.49678C120.56 8.06452 121.489 8.86452 122.126 9.89677C122.763 10.9118 123.081 12.1161 123.081 13.5097C123.081 14.886 122.763 16.0903 122.126 17.1226C121.489 18.1548 120.56 18.9548 119.339 19.5226C118.135 20.0903 116.689 20.3742 115.003 20.3742H106.72V15.6258H114.616C115.373 15.6258 115.958 15.4366 116.371 15.0581C116.801 14.6796 117.016 14.1634 117.016 13.5097C117.016 12.8215 116.801 12.2968 116.371 11.9355C115.958 11.5742 115.373 11.3935 114.616 11.3935H107.236L109.945 8.65806V26H103.932V6.64516H115.003ZM126.234 22.5161V17.7161H139.499V22.5161H126.234ZM136.944 6.64516L145.615 26H139.189L132.17 9.25161H133.795L126.75 26H120.35L128.995 6.64516H136.944ZM132.269 0.761291H138.927L134.36 5.25161H128.476L132.269 0.761291ZM159.489 23.1871V18.4903H165.683C166.302 18.4903 166.827 18.3871 167.257 18.1806C167.704 17.9742 168.04 17.6731 168.263 17.2774C168.504 16.8817 168.625 16.4086 168.625 15.8581C168.625 15.3075 168.504 14.843 168.263 14.4645C168.04 14.0688 167.704 13.7677 167.257 13.5613C166.827 13.3548 166.302 13.2516 165.683 13.2516H159.515V8.55484H166.044C167.851 8.55484 169.39 8.85591 170.663 9.45806C171.954 10.0602 172.943 10.9118 173.631 12.0129C174.337 13.0968 174.689 14.3785 174.689 15.8581C174.689 17.3376 174.337 18.628 173.631 19.729C172.943 20.8301 171.954 21.6817 170.663 22.2839C169.39 22.886 167.851 23.1871 166.044 23.1871H159.489ZM151.593 23.1871C149.786 23.1871 148.238 22.886 146.947 22.2839C145.674 21.6817 144.694 20.8301 144.005 19.729C143.317 18.628 142.973 17.3376 142.973 15.8581C142.973 14.3785 143.317 13.0968 144.005 12.0129C144.694 10.9118 145.674 10.0602 146.947 9.45806C148.238 8.85591 149.786 8.55484 151.593 8.55484H158.147V13.2516H151.954C151.334 13.2516 150.81 13.3548 150.38 13.5613C149.95 13.7677 149.614 14.0688 149.373 14.4645C149.15 14.843 149.038 15.3075 149.038 15.8581C149.038 16.4086 149.15 16.8817 149.373 17.2774C149.614 17.6731 149.95 17.9742 150.38 18.1806C150.81 18.3871 151.334 18.4903 151.954 18.4903H158.173V23.1871H151.593ZM155.825 26.7226V5.92258H161.838V26.7226H155.825ZM181.32 9.25161H187.333V26H181.32V9.25161ZM174.146 6.64516H194.507V11.9871H174.146V6.64516ZM212.575 14.2065V18.4387H198.2V14.2065H212.575ZM202.304 16.3226L201.091 23.8065L198.742 21.2H213.478V26H195.129L196.575 16.3226L195.129 6.64516H213.349V11.4452H198.742L201.091 8.83871L202.304 16.3226ZM226.426 6.64516C228.112 6.64516 229.557 6.92903 230.761 7.49678C231.983 8.06452 232.912 8.86452 233.548 9.89677C234.185 10.9118 234.503 12.1161 234.503 13.5097C234.503 14.886 234.185 16.0903 233.548 17.1226C232.912 18.1548 231.983 18.9548 230.761 19.5226C229.557 20.0903 228.112 20.3742 226.426 20.3742H218.142V15.6258H226.039C226.796 15.6258 227.381 15.4366 227.794 15.0581C228.224 14.6796 228.439 14.1634 228.439 13.5097C228.439 12.8215 228.224 12.2968 227.794 11.9355C227.381 11.5742 226.796 11.3935 226.039 11.3935H218.658L221.368 8.65806V26H215.355V6.64516H226.426Z" fill="#222222"/>
</svg>
